<svg width="24" height="24" viewBox="0 0 24 24" fill="none" xmlns="http://www.w3.org/2000/svg">
<path d="M2 7L6 11L13 4" stroke="white" stroke-width="2" stroke-linecap="round"/>
<mask id="path-2-outside-1_3201_320" maskUnits="userSpaceOnUse" x="12" y="9" width="9" height="14" fill="black">
<rect fill="white" x="12" y="9" width="9" height="14"/>
<path fill-rule="evenodd" clip-rule="evenodd" d="M14.1695 18.4522C14.106 18.5135 14 18.4686 14 18.3803V12.1002C14 12.0111 14.1077 11.9665 14.1707 12.0295L18.7766 16.6353C18.8396 16.6983 18.7949 16.8061 18.7059 16.8061H16.8693C16.7978 16.8061 16.7494 16.8789 16.7771 16.9448L18.0466 19.969C18.068 20.0199 18.0441 20.0785 17.9932 20.0999L17.0649 20.4896C17.014 20.511 16.9554 20.487 16.934 20.4361L15.6001 17.2588C15.5729 17.1939 15.489 17.1767 15.4384 17.2256L14.1695 18.4522Z"/>
</mask>
<path d="M15.6001 17.2588L13.756 18.0329L15.6001 17.2588ZM15.4384 17.2256L14.0484 15.7876L15.4384 17.2256ZM16.934 20.4361L18.7781 19.6619L16.934 20.4361ZM18.0466 19.969L19.8907 19.1948L18.0466 19.969ZM17.9932 20.0999L18.7673 21.944L17.9932 20.0999ZM16.7771 16.9448L14.933 17.7189L16.7771 16.9448ZM18.7766 16.6353L17.3624 18.0496L18.7766 16.6353ZM14.1695 18.4522L12.7795 17.0142L14.1695 18.4522ZM12 12.1002V18.3803H16V12.1002H12ZM20.1908 15.2211L15.5849 10.6153L12.7565 13.4437L17.3624 18.0496L20.1908 15.2211ZM16.8693 18.8061H18.7059V14.8061H16.8693V18.8061ZM19.8907 19.1948L18.6212 16.1706L14.933 17.7189L16.2026 20.7432L19.8907 19.1948ZM17.8391 22.3337L18.7673 21.944L17.219 18.2558L16.2907 18.6455L17.8391 22.3337ZM13.756 18.0329L15.0899 21.2103L18.7781 19.6619L17.4442 16.4846L13.756 18.0329ZM15.5595 19.8902L16.8285 18.6635L14.0484 15.7876L12.7795 17.0142L15.5595 19.8902ZM17.4442 16.4846C16.8725 15.1226 15.1104 14.7609 14.0484 15.7876L16.8285 18.6635C15.8676 19.5924 14.2734 19.2652 13.756 18.0329L17.4442 16.4846ZM16.2907 18.6455C17.2583 18.2393 18.3719 18.6944 18.7781 19.6619L15.0899 21.2103C15.5388 22.2796 16.7697 22.7826 17.8391 22.3337L16.2907 18.6455ZM16.2026 20.7432C15.7964 19.7756 16.2515 18.662 17.219 18.2558L18.7673 21.944C19.8367 21.4951 20.3397 20.2642 19.8907 19.1948L16.2026 20.7432ZM16.8693 14.8061C15.3684 14.8061 14.352 16.335 14.933 17.7189L18.6212 16.1706C19.1468 17.4227 18.2272 18.8061 16.8693 18.8061V14.8061ZM17.3624 18.0496C16.1654 16.8526 17.0131 14.8061 18.7059 14.8061V18.8061C20.5768 18.8061 21.5137 16.544 20.1908 15.2211L17.3624 18.0496ZM12 18.3803C12 20.2341 14.2267 21.1786 15.5595 19.8902L12.7795 17.0142C13.9854 15.8485 16 16.7031 16 18.3803H12ZM16 12.1002C16 13.7929 13.9534 14.6406 12.7565 13.4437L15.5849 10.6153C14.262 9.29235 12 10.2293 12 12.1002H16Z" fill="white" mask="url(#path-2-outside-1_3201_320)"/>
</svg>
