<svg width="24" height="24" viewBox="0 0 24 24" fill="none" xmlns="http://www.w3.org/2000/svg">
<path d="M19.0024 21.9976L15.0024 21.9976L15.0024 17.9976" stroke="white" stroke-width="2" stroke-linecap="round" stroke-linejoin="round"/>
<path d="M6.00238 1.99762L9.00238 1.99762L9.00238 4.99762" stroke="white" stroke-width="2" stroke-linecap="round" stroke-linejoin="round"/>
<path d="M15 3.50762C16.4332 4.01479 17.7146 4.87675 18.7246 6.01309C19.7346 7.14942 20.4402 8.52309 20.7757 10.0059C21.1112 11.4887 21.0656 13.0324 20.6432 14.4928C20.2208 15.9532 19.4353 17.2829 18.36 18.3576L15 21.9976M8.99999 1.99762L5.63999 5.63762C4.5647 6.71237 3.77919 8.04199 3.35676 9.50243C2.93433 10.9629 2.88874 12.5065 3.22424 13.9893C3.55975 15.4722 4.26542 16.8458 5.27541 17.9822C6.28539 19.1185 7.56677 19.9805 8.99999 20.4876" stroke="white" stroke-width="2" stroke-linecap="round" stroke-linejoin="round"/>
</svg>
