<svg width="24" height="24" viewBox="0 0 24 24" fill="none" xmlns="http://www.w3.org/2000/svg">
<path d="M3 5C3 7.33333 4.8 12 12 12C19.2 12 21 7.33333 21 5" stroke="white" stroke-width="2" stroke-linecap="round"/>
<path d="M10 16C4 16 1.99999 20 1.99999 22" stroke="white" stroke-width="2" stroke-linecap="round"/>
<path d="M14 16C20 16 22 20 22 22" stroke="white" stroke-width="2" stroke-linecap="round"/>
<path d="M1 14H7" stroke="white" stroke-width="2" stroke-linecap="round"/>
<path d="M17 14H23" stroke="white" stroke-width="2" stroke-linecap="round"/>
<path d="M5 11H19V15.3C19 18.448 16.448 21 13.3 21C13.1343 21 13 20.8657 13 20.7V15C13 14.4477 12.5523 14 12 14C11.4477 14 11 14.4477 11 15V20.7C11 20.8657 10.8657 21 10.7 21C7.55198 21 5 18.448 5 15.3V11Z" fill="white"/>
<rect x="7" y="3" width="10" height="6" rx="3" fill="white"/>
<rect x="9" y="1" width="6" height="8" rx="3" fill="white"/>
</svg>
