<svg width="24" height="24" viewBox="0 0 24 24" fill="none" xmlns="http://www.w3.org/2000/svg">
<path fill-rule="evenodd" clip-rule="evenodd" d="M9 6C9 4.89543 9.89543 4 11 4H13C14.1046 4 15 4.89543 15 6H9ZM7 6C7 3.79086 8.79086 2 11 2H13C15.2091 2 17 3.79086 17 6H20C20.5523 6 21 6.44772 21 7C21 7.55228 20.5523 8 20 8H19.9311L19.2628 17.3562C19.0759 19.9728 16.8987 22 14.2755 22H9.72448C7.10128 22 4.92408 19.9728 4.73718 17.3562L4.06888 8H4C3.44772 8 3 7.55228 3 7C3 6.44772 3.44772 6 4 6H7ZM6.07398 8H17.926L17.2679 17.2137C17.1558 18.7837 15.8494 20 14.2755 20H9.72448C8.15056 20 6.84424 18.7837 6.7321 17.2137L6.07398 8ZM11 12C11 11.4477 10.5523 11 10 11C9.44772 11 9 11.4477 9 12V16C9 16.5523 9.44772 17 10 17C10.5523 17 11 16.5523 11 16V12ZM14 11C14.5523 11 15 11.4477 15 12V16C15 16.5523 14.5523 17 14 17C13.4477 17 13 16.5523 13 16V12C13 11.4477 13.4477 11 14 11Z" fill="white"/>
</svg>
