<svg width="24" height="24" viewBox="0 0 24 24" fill="none" xmlns="http://www.w3.org/2000/svg">
<path fill-rule="evenodd" clip-rule="evenodd" d="M13.5907 3.78771C12.7903 2.73743 11.2097 2.73743 10.4093 3.78771L8.48425 6.31364C8.28929 6.56947 8.11269 6.83459 7.95445 7.10726C7.15942 6.82477 6.30392 6.67114 5.41401 6.67114H4.7675C3.66293 6.67114 2.7675 7.56657 2.7675 8.67114V11.8875C2.7675 12.2894 2.79876 12.684 2.85898 13.069C2.73338 13.153 2.60907 13.2415 2.48618 13.3346L2.19316 13.5566C1.38386 14.1697 1.07844 15.3462 1.48735 16.2756L2.09243 17.6507C2.93395 19.5633 4.41102 20.8572 6.16965 21.3137C7.92827 21.7702 9.84821 21.3581 11.5137 20.0964L11.0418 19.4735L11.5137 20.0964L12 19.728L12.4862 20.0964C14.1518 21.3581 16.0717 21.7702 17.8303 21.3137C19.5889 20.8572 21.066 19.5633 21.9075 17.6507L22.5126 16.2756C22.9215 15.3462 22.6161 14.1697 21.8068 13.5566L21.5138 13.3346C21.3909 13.2415 21.2666 13.153 21.1411 13.0691C21.2013 12.684 21.2326 12.2894 21.2326 11.8875V8.67114C21.2326 7.56657 20.3371 6.67114 19.2326 6.67114H18.5861C17.6961 6.67114 16.8406 6.82478 16.0455 7.10729C15.8873 6.83461 15.7107 6.56948 15.5157 6.31364L13.5907 3.78771ZM16.9719 12.1181C17.1406 11.0683 17.0876 9.99046 16.8128 8.95818C17.3692 8.77208 17.9652 8.67114 18.5861 8.67114H19.2326L19.2326 11.8875C19.2326 13.7116 18.3582 15.3316 17.0056 16.351C16.166 16.9838 15.1422 17.3852 14.0294 17.4605L15.5157 15.5102C16.2931 14.4902 16.7784 13.3225 16.9719 12.1181ZM7.18717 8.95815C6.91328 9.98714 6.85972 11.0614 7.02647 12.1081C7.21887 13.316 7.70474 14.4873 8.48425 15.5102L9.97061 17.4605C8.85784 17.3851 7.83406 16.9838 6.99439 16.351C5.64188 15.3316 4.7675 13.7116 4.7675 11.8875V8.67114L5.41401 8.67114C6.03484 8.67114 6.63079 8.77207 7.18717 8.95815ZM12 5L13.925 7.52593C15.4492 9.52592 15.4492 12.2978 13.925 14.2978L12 16.8237L10.075 14.2978C8.55076 12.2978 8.55076 9.52592 10.075 7.52593L12 5ZM20.5237 15.0936C19.819 16.6028 18.6321 17.8415 17.1612 18.6119C16.5595 18.9271 15.9103 19.1638 15.227 19.3086C15.96 19.5367 16.6782 19.5465 17.3278 19.3779C18.4292 19.092 19.4535 18.2621 20.0769 16.8453L20.682 15.4701C20.7179 15.3884 20.6702 15.2046 20.5991 15.1507L20.5237 15.0936ZM7.8284 19.0431C8.13473 19.1512 8.45009 19.2402 8.77303 19.3086C8.03997 19.5367 7.32175 19.5465 6.67216 19.3779C5.57078 19.092 4.54645 18.2621 3.92306 16.8453L3.31798 15.4701C3.28203 15.3884 3.32973 15.2046 3.40087 15.1507L3.47632 15.0936C4.15655 16.5502 5.28593 17.755 6.6863 18.5298C6.73823 18.5585 6.79053 18.5866 6.84319 18.6142C7.15916 18.7794 7.48822 18.923 7.8284 19.0431Z" fill="white"/>
</svg>
