<svg width="24" height="24" viewBox="0 0 24 24" fill="none" xmlns="http://www.w3.org/2000/svg">
<path fill-rule="evenodd" clip-rule="evenodd" d="M4 12C4 7.58172 7.58172 4 12 4C16.4183 4 20 7.58172 20 12C20 13.8487 19.3729 15.551 18.3199 16.9056L16.8907 15.4765C17.5892 14.4957 18 13.2958 18 12C18 8.68629 15.3137 6 12 6C8.68629 6 6 8.68629 6 12C6 15.3137 8.68629 18 12 18C13.2958 18 14.4957 17.5892 15.4765 16.8907L16.9056 18.3199C15.551 19.3729 13.8487 20 12 20C7.58172 20 4 16.4183 4 12ZM15.4462 14.032C15.7981 13.4365 16 12.7418 16 12C16 9.79086 14.2091 8 12 8C9.79086 8 8 9.79086 8 12C8 14.2091 9.79086 16 12 16C12.7418 16 13.4365 15.7981 14.032 15.4462L11.2936 12.7078C11.2912 12.7054 11.2888 12.703 11.2864 12.7005C11.1099 12.5208 11.0008 12.2746 11 12.003C11 12.002 11 12.001 11 12C11 11.999 11 11.998 11 11.997C11.0004 11.8625 11.0273 11.7343 11.0759 11.6172C11.1236 11.502 11.1937 11.3938 11.2864 11.2995C11.2907 11.2951 11.2951 11.2907 11.2995 11.2864C11.4792 11.1099 11.7254 11.0008 11.997 11C11.998 11 11.999 11 12 11C12.001 11 12.002 11 12.003 11C12.1375 11.0004 12.2657 11.0273 12.3828 11.0759C12.498 11.1236 12.6062 11.1937 12.7005 11.2864C12.703 11.2888 12.7054 11.2912 12.7078 11.2936L15.4462 14.032ZM12 2C6.47715 2 2 6.47715 2 12C2 17.5228 6.47715 22 12 22C17.5228 22 22 17.5228 22 12C22 6.47715 17.5228 2 12 2Z" fill="white"/>
</svg>
