<svg width="24" height="24" viewBox="0 0 24 24" fill="none" xmlns="http://www.w3.org/2000/svg">
<path d="M2 19L2 15L6 15" stroke="white" stroke-width="2" stroke-linecap="round" stroke-linejoin="round"/>
<path d="M22 6L22 9L19 9" stroke="white" stroke-width="2" stroke-linecap="round" stroke-linejoin="round"/>
<path d="M20.49 14.9976C19.9828 16.4308 19.1209 17.7122 17.9845 18.7222C16.8482 19.7322 15.4745 20.4378 13.9917 20.7733C12.5089 21.1089 10.9652 21.0633 9.50481 20.6408C8.04437 20.2184 6.71475 19.4329 5.64 18.3576L2 14.9976M22 8.99761L18.36 5.6376C17.2853 4.56232 15.9556 3.77681 14.4952 3.35438C13.0348 2.93195 11.4911 2.88636 10.0083 3.22186C8.52547 3.55737 7.1518 4.26304 6.01547 5.27302C4.87913 6.28301 4.01717 7.56439 3.51 8.99761" stroke="white" stroke-width="2" stroke-linecap="round" stroke-linejoin="round"/>
</svg>
