<svg width="24" height="24" viewBox="0 0 24 24" fill="none" xmlns="http://www.w3.org/2000/svg">
<path fill-rule="evenodd" clip-rule="evenodd" d="M5.92238 1.66339C6.38644 1.19932 7.04866 0.992464 7.69436 1.10986L17.8107 2.94919C18.2855 3.03553 18.7131 3.29067 19.0146 3.66754L22.3948 7.89271C22.868 8.48425 22.9664 9.29239 22.6489 9.98021L17.2717 21.6308C16.8543 22.5352 15.8351 22.9946 14.8811 22.7084L6.20981 20.107C5.58639 19.92 5.09297 19.4413 4.88714 18.8238L1.24673 7.90255C1.00717 7.18388 1.19422 6.39155 1.72988 5.85588L5.92238 1.66339ZM17.4529 4.91693L7.33659 3.0776L3.1441 7.2701L6.78451 18.1913L15.4558 20.7927L20.833 9.1421L17.4529 4.91693ZM13 17C13 16.4477 12.5523 16 12 16C11.4477 16 11 16.4477 11 17C11 17.5523 11.4477 18 12 18C12.5523 18 13 17.5523 13 17ZM10.7001 8.75073C10.9609 8.29977 11.446 8.00001 12 8.00001C12.8284 8.00001 13.5 8.67158 13.5 9.50001C13.5 10.0665 13.1864 10.5611 12.7185 10.8172C12.3477 11.0202 11.9396 11.306 11.6132 11.6866C11.2824 12.0723 11 12.6006 11 13.25V13.5C11 14.0523 11.4477 14.5 12 14.5C12.5523 14.5 13 14.0523 13 13.5V13.25C13 13.2091 13.0141 13.1253 13.1313 12.9886C13.2529 12.8469 13.4441 12.7001 13.6789 12.5716C14.7619 11.9787 15.5 10.8263 15.5 9.50001C15.5 7.56701 13.933 6.00001 12 6.00001C10.7032 6.00001 9.5725 6.70574 8.96884 7.74928C8.6923 8.22734 8.85566 8.83907 9.33372 9.11561C9.81178 9.39216 10.4235 9.22879 10.7001 8.75073Z" fill="white"/>
</svg>
