<svg width="24" height="24" viewBox="0 0 24 24" fill="none" xmlns="http://www.w3.org/2000/svg">
<path fill-rule="evenodd" clip-rule="evenodd" d="M4 2C2.89543 2 2 2.89543 2 4V8.69722C2 9.09207 2.11688 9.47809 2.3359 9.80662L4 12.3028V16.5858L2.80255 17.7832C2.19383 18.392 2.04292 19.3219 2.42791 20.0919L2.82918 20.8944C3.16796 21.572 3.86049 22 4.61803 22H19.382C20.1395 22 20.832 21.572 21.1708 20.8944L21.5721 20.0919C21.9571 19.3219 21.8062 18.392 21.1975 17.7832L20 16.5858V12.3028L21.6641 9.80662C21.8831 9.47809 22 9.09207 22 8.69722V4C22 2.89543 21.1046 2 20 2H17C15.8954 2 15 2.89543 15 4C15 2.89543 14.1046 2 13 2H11C9.89543 2 9 2.89543 9 4C9 2.89543 8.10457 2 7 2H4ZM4 4H7V5C7 6.10457 7.89543 7 9 7C10.1046 7 11 6.10457 11 5V4H13V5C13 6.10457 13.8954 7 15 7C16.1046 7 17 6.10457 17 5V4H20V8.69722L18.3359 11.1934C18.1169 11.5219 18 11.9079 18 12.3028V16.5858C18 17.1162 18.2107 17.6249 18.5858 18L19.7832 19.1975L19.382 20H4.61803L4.21676 19.1975L5.41421 18C5.78929 17.6249 6 17.1162 6 16.5858V12.3028C6 11.9079 5.88312 11.5219 5.6641 11.1934L4 8.69722V4ZM12 9C10.3431 9 9 10.3431 9 12V14C9 15.1046 9.89543 16 11 16H13C14.1046 16 15 15.1046 15 14V12C15 10.3431 13.6569 9 12 9ZM11 12C11 11.4477 11.4477 11 12 11C12.5523 11 13 11.4477 13 12V14H11V12Z" fill="white"/>
</svg>
